<?xml version="1.0" standalone="no"?><svg xmlns="http://www.w3.org/2000/svg" viewBox="0 0 1440 320"><path fill="#f3f4f5" fill-opacity="3" d="M0,224L16,224C32,224,64,224,96,240C128,256,160,288,192,298.7C224,309,256,299,288,293.3C320,288,352,288,384,288C416,288,448,288,480,277.3C512,267,544,245,576,234.7C608,224,640,224,672,218.7C704,213,736,203,768,186.7C800,171,832,149,864,165.3C896,181,928,235,960,261.3C992,288,1024,288,1056,261.3C1088,235,1120,181,1152,160C1184,139,1216,149,1248,170.7C1280,192,1312,224,1344,245.3C1376,267,1408,277,1424,282.7L1440,288L1440,0L1424,0C1408,0,1376,0,1344,0C1312,0,1280,0,1248,0C1216,0,1184,0,1152,0C1120,0,1088,0,1056,0C1024,0,992,0,960,0C928,0,896,0,864,0C832,0,800,0,768,0C736,0,704,0,672,0C640,0,608,0,576,0C544,0,512,0,480,0C448,0,416,0,384,0C352,0,320,0,288,0C256,0,224,0,192,0C160,0,128,0,96,0C64,0,32,0,16,0L0,0Z"></path></svg>